#!OML:ASF E:\motion texture\Top Level 1\Subject 1\Session 1\male.ASF
:FULLY-SPECIFIED
:DEGREES
632
root -43.4262 17.9052 6.47365 48.1147 -85.7821 -44.9732
lowerback -2.32252 6.07457 4.85536
upperback -2.95942 7.99796 1.25098
thorax -1.27732 3.89926 -1.27304
lowerneck -17.4414 1.00644 -1.48665
upperneck 20.4235 0.364358 5.61803
head 9.30011 0.643658 2.22714
rclavicle 2.22639e-014 9.93923e-015
rhumerus 38.9306 11.7495 -62.4122
rradius 89.4664
rwrist 21.4038
rhand -14.1419 -33.0743
rfingers 7.12502
rthumb 11.9923 -62.7108
lclavicle 2.22639e-014 9.93923e-015
lhumerus -27.2147 4.36711 82.1656
lradius 36.5295
lwrist -27.3755
lhand -8.20149 21.1685
lfingers 7.12502
lthumb 17.715 50.3815
rfemur -15.3055 -12.184 21.9125
rtibia 58.0759
rfoot 1.33166 -16.1123
rtoes 3.18259
lfemur -17.4889 -6.02578 -16.7645
ltibia 20.1067
lfoot -3.00545 -5.76853
ltoes -0.987837
633
root -43.5527 17.9181 6.47189 46.6164 -85.8835 -43.4646
lowerback -2.29158 6.0316 4.67473
upperback -2.94879 7.94607 1.19839
thorax -1.30246 3.87667 -1.2343
lowerneck -17.4627 0.990557 -1.53192
upperneck 20.4849 0.333618 5.6896
head 9.32634 0.633952 2.25703
rclavicle 1.10077e-013 1.43125e-014
rhumerus 37.602 12.9193 -62.2741
rradius 88.4394
rwrist 21.4972
rhand -14.3218 -32.0745
rfingers 7.12502
rthumb 11.8189 -61.721
lclavicle 1.10077e-013 1.43125e-014
lhumerus -27.4675 4.6011 82.4662
lradius 35.5143
lwrist -27.8818
lhand -7.83134 20.645
lfingers 7.12502
lthumb 18.0711 49.8255
rfemur -16.0906 -12.4324 21.6238
rtibia 58.2934
rfoot 1.27269 -16.4063
rtoes 3.55328
lfemur -16.8936 -6.02339 -16.9826
ltibia 19.9134
lfoot -3.31659 -5.7594
ltoes -0.808595
634
root -43.678 17.9304 6.4694 45.1426 -85.9783 -41.9728
lowerback -2.2629 5.98781 4.49395
upperback -2.93557 7.89268 1.14868
thorax -1.32401 3.85346 -1.192
lowerneck -17.4887 0.97312 -1.58157
upperneck 20.5386 0.302913 5.75924
head 9.35081 0.623789 2.28695
rclavicle 1.30204e-014 -8.34896e-015
rhumerus 36.2105 14.0617 -62.2186
rradius 87.452
rwrist 21.6545
rhand -14.763 -31.2184
rfingers 7.12502
rthumb 11.3933 -60.8888
lclavicle 1.30204e-014 -8.34896e-015
lhumerus -27.7164 4.85554 82.7505
lradius 34.5454
lwrist -28.3669
lhand -7.46986 20.1425
lfingers 7.12502
lthumb 18.4189 49.2905
rfemur -16.8714 -12.658 21.3505
rtibia 58.404
rfoot 1.15474 -16.7098
rtoes 3.89344
lfemur -16.3048 -6.02579 -17.1856
ltibia 19.7059
lfoot -3.62745 -5.7399
ltoes -0.671789
635
root -43.8022 17.9418 6.46619 43.7065 -86.0679 -40.5133
lowerback -2.2316 5.94402 4.31423
upperback -2.92109 7.83923 1.10077
thorax -1.34565 3.8302 -1.1485
lowerneck -17.5171 0.953091 -1.63706
upperneck 20.5849 0.270478 5.82988
head 9.3732 0.612517 2.31789
rclavicle -3.40916e-014 -3.18055e-015
rhumerus 34.7516 15.1602 -62.2625
rradius 86.4942
rwrist 21.8573
rhand -15.4349 -30.4944
rfingers 7.12502
rthumb 10.7453 -60.1996
lclavicle -3.40916e-014 -3.18055e-015
lhumerus -27.9637 5.1229 83.0171
lradius 33.6227
lwrist -28.8267
lhand -7.11363 19.6766
lfingers 7.12502
lthumb 18.7615 48.7918
rfemur -17.6422 -12.8589 21.0906
rtibia 58.4051
rfoot 0.979943 -17.0187
rtoes 4.20512
lfemur -15.7237 -6.02867 -17.3749
ltibia 19.4916
lfoot -3.94064 -5.71111
ltoes -0.575802
636
root -43.9255 17.9523 6.46232 42.2551 -86.1537 -39.0321
lowerback -2.20605 5.90037 4.13162
upperback -2.90156 7.78538 1.05511
thorax -1.35939 3.80704 -1.10004
lowerneck -17.5485 0.931881 -1.69686
upperneck 20.6213 0.23894 5.89788
head 9.39271 0.601092 2.34862
rclavicle 2.65378e-014 -1.55052e-014
rhumerus 33.225 16.2044 -62.4097
rradius 85.5647
rwrist 22.0482
rhand -16.2112 -29.8239
rfingers 7.12502
rthumb 9.99643 -59.5665
lclavicle 2.65378e-014 -1.55052e-014
lhumerus -28.2047 5.40695 83.2678
lradius 32.745
lwrist -29.263
lhand -6.76869 19.2453
lfingers 7.12502
lthumb 19.0933 48.3281
rfemur -18.399 -13.0375 20.8381
rtibia 58.2928
rfoot 0.754936 -17.3286
rtoes 4.49953
lfemur -15.1517 -6.03588 -17.5563
ltibia 19.2734
lfoot -4.25449 -5.6734
ltoes -0.504984
637
root -44.0478 17.9618 6.45773 40.8024 -86.2364 -37.5428
lowerback -2.17946 5.85632 3.94635
upperback -2.88112 7.73093 1.01088
thorax -1.37316 3.78362 -1.04864
lowerneck -17.5846 0.909172 -1.76271
upperneck 20.6538 0.207188 5.96664
head 9.41175 0.589268 2.38061
rclavicle 3.68746e-014 1.55052e-014
rhumerus 31.625 17.1903 -62.6699
rradius 84.6546
rwrist 22.2202
rhand -17.0692 -29.1937
rfingers 7.12502
rthumb 9.16856 -58.9744
lclavicle 3.68746e-014 1.55052e-014
lhumerus -28.4437 5.71017 83.4974
lradius 31.9112
lwrist -29.6807
lhand -6.43219 18.8481
lfingers 7.12502
lthumb 19.4168 47.8986
rfemur -19.1408 -13.191 20.5938
rtibia 58.067
rfoot 0.4854 -17.6377
rtoes 4.76281
lfemur -14.5918 -6.04485 -17.7293
ltibia 19.0555
lfoot -4.57078 -5.63257
ltoes -0.462416
638
root -44.1693 17.9703 6.45232 39.3701 -86.3163 -36.067
lowerback -2.1551 5.81284 3.7595
upperback -2.85854 7.67696 0.968195
thorax -1.38366 3.76053 -0.994249
lowerneck -17.6228 0.885393 -1.83219
upperneck 20.681 0.175747 6.03397
head 9.42933 0.57719 2.4127
rclavicle 9.41245e-014 1.98785e-015
rhumerus 29.9492 18.1067 -63.0502
rradius 83.7562
rwrist 22.3659
rhand -17.9876 -28.5877
rfingers 7.12502
rthumb 8.28229 -58.4053
lclavicle 9.41245e-014 1.98785e-015
lhumerus -28.6783 6.03491 83.7041
lradius 31.1187
lwrist -30.0825
lhand -6.10476 18.4859
lfingers 7.12502
lthumb 19.7316 47.5044
rfemur -19.8654 -13.3163 20.3584
rtibia 57.7264
rfoot 0.176668 -17.9444
rtoes 5.03946
lfemur -14.047 -6.05364 -17.8921
ltibia 18.8425
lfoot -4.89013 -5.5883
ltoes -0.44427
639
root -44.3264 18.0554 6.47387 34.5416 -85.8191 -31.4723
lowerback -2.09301 5.64839 3.70868
upperback -3.05517 7.46471 0.967353
thorax -1.63631 3.64744 -0.992357
lowerneck -17.546 0.688788 -1.88331
upperneck 21.2364 -0.274524 6.61668
head 9.63262 0.426558 2.57678
rclavicle -1.70955e-014 1.23246e-014
rhumerus 30.9108 20.6355 -60.7538
rradius 83.6539
rwrist 19.2351
rhand -6.06607 -26.2899
rfingers 7.12502
rthumb 19.7688 -55.3046
lclavicle -1.70955e-014 1.23246e-014
lhumerus -28.6351 5.10521 85.1308
lradius 27.7242
lwrist -31.2663
lhand -3.84323 15.5424
lfingers 7.12502
lthumb 21.9045 44.3224
rfemur -21.5662 -15.9765 20.3315
rtibia 62.7585
rfoot -0.136917 -16.6733
rtoes 7.40237
lfemur -12.3493 -6.28518 -18.0683
ltibia 17.2625
lfoot -4.71561 -5.84546
ltoes 0.0889843
640
root -44.4444 18.0624 6.46643 33.1895 -85.8842 -30.0538
lowerback -2.01072 5.63752 3.455
upperback -3.06191 7.45787 0.919088
thorax -1.71426 3.64802 -0.914414
lowerneck -17.5598 0.612422 -1.93348
upperneck 21.1919 -0.343376 6.53766
head 9.62261 0.381756 2.54769
rclavicle -4.52235e-014 3.97569e-015
rhumerus 28.9088 21.6174 -61.0195
rradius 83.38
rwrist 19.3948
rhand -6.53712 -25.6489
rfingers 7.12502
rthumb 19.3159 -54.7096
lclavicle -4.52235e-014 3.97569e-015
lhumerus -28.6742 5.73528 85.308
lradius 26.8502
lwrist -32.0634
lhand -3.27687 15.4784
lfingers 7.12502
lthumb 22.4482 44.1938
rfemur -22.3196 -15.9953 20.116
rtibia 62.0568
rfoot -1.16993 -16.6741
rtoes 6.03579
lfemur -11.7991 -6.24634 -18.2057
ltibia 16.9584
lfoot -4.99558 -5.83422
ltoes 0.0678505
